<svg width="9" height="13" viewBox="0 0 9 13" fill="none" xmlns="http://www.w3.org/2000/svg">
<path fill-rule="evenodd" clip-rule="evenodd" d="M6.23731 8.18313C4.57247 10.3458 4.29914 12.1898 4.29914 12.1898C4.29914 12.2809 4.1252 12.2809 4.1252 12.1898C4.1252 12.1898 3.77732 10.3458 2.18702 8.18313C0.870051 6.4985 0.24884 5.86107 0.24884 4.49516C0.273689 2.49182 2.03793 0.875488 4.22459 0.875488C6.33671 0.875488 8.17549 2.49182 8.17549 4.49516C8.17549 5.86107 6.93307 7.22699 6.23731 8.18313ZM4.22459 3.2886C5.01974 3.2886 5.7155 3.85773 5.7155 4.56346C5.7155 5.26918 5.01974 5.92937 4.22459 5.92937C3.42944 5.92937 2.73368 5.29194 2.73368 4.56346C2.73368 3.83497 3.42944 3.2886 4.22459 3.2886Z" fill="#CFB277"/>
</svg>
