<svg width="13" height="11" viewBox="0 0 13 11" fill="none" xmlns="http://www.w3.org/2000/svg">
<path fill-rule="evenodd" clip-rule="evenodd" d="M8.52672 6.59362C8.65017 6.45642 8.86878 6.40474 9.06704 6.46651C9.98907 6.76128 10.9761 6.9136 11.9711 6.91486C12.2215 6.91612 12.4242 7.07726 12.4242 7.27622V9.80201C12.4242 10.001 12.2215 10.1621 11.9711 10.1621C5.3596 10.1621 0 5.9024 0 0.648925C0 0.449963 0.202753 0.288818 0.454674 0.288818H3.63263C3.88297 0.288818 4.08413 0.449963 4.08413 0.648925C4.08889 1.41452 4.26627 2.17381 4.61335 2.88772C4.68948 3.04508 4.6197 3.22387 4.44391 3.31821L3.43305 3.86089C4.34874 5.39712 5.89357 6.64236 7.81536 7.39157L8.52672 6.59362Z" fill="#CFB277"/>
</svg>
