<svg width="16" height="16" viewBox="0 0 16 16" fill="none" xmlns="http://www.w3.org/2000/svg">
<path fill-rule="evenodd" clip-rule="evenodd" d="M13.2533 4.42446C13.2533 3.91942 12.8564 3.52903 12.3429 3.52903C11.8295 3.52903 11.4325 3.91942 11.4325 4.42446C11.4325 4.90656 11.8295 5.31988 12.3429 5.31988C12.8564 5.31988 13.2533 4.90656 13.2533 4.42446ZM15.8447 4.67728C15.8447 2.63361 14.1637 0.958008 12.0632 0.958008H4.64015C2.56231 0.958008 0.858688 2.63421 0.858688 4.67728V11.9782C0.858688 14.0448 2.56292 15.6975 4.64015 15.6975H12.0632C14.1644 15.6975 15.8447 14.0442 15.8447 11.9782V4.67728ZM12.0626 2.56482C13.2533 2.56482 14.2337 3.50611 14.2104 4.67728V11.9782C14.2104 13.1494 13.2533 14.0907 12.0626 14.0907H4.63954C3.44878 14.0907 2.49176 13.1494 2.49176 11.9782V4.67728C2.49176 3.50611 3.44878 2.56482 4.63954 2.56482H12.0626ZM12.2264 8.32776C12.2264 6.23823 10.4755 4.5391 8.35106 4.5391C6.2266 4.5391 4.49905 6.23823 4.49905 8.32776C4.49905 10.4173 6.2266 12.1393 8.35106 12.1393C10.4755 12.1393 12.2264 10.4173 12.2264 8.32776ZM8.35106 6.14652C9.58844 6.14652 10.5921 7.13366 10.5921 8.32776C10.5921 9.54479 9.58844 10.5319 8.35106 10.5319C7.13699 10.5319 6.13335 9.54479 6.13335 8.32776C6.13335 7.11073 7.13699 6.14652 8.35106 6.14652Z" fill="#CFB277"/>
</svg>
