<svg width="15" height="16" viewBox="0 0 15 16" fill="none" xmlns="http://www.w3.org/2000/svg">
<path fill-rule="evenodd" clip-rule="evenodd" d="M15 15.6975V10.3132C15 7.62107 14.3841 5.66926 11.2364 5.66926C9.66253 5.66926 8.63609 6.4096 8.29395 7.28455H8.22552V5.93848H5.28306V15.6975H8.36237V10.7843C8.36237 9.50557 8.56766 8.2268 10.21 8.2268C11.7838 8.2268 11.8523 9.70748 11.8523 10.8516V15.6975H15ZM1.79318 0.958008C0.766743 0.958008 0.0140228 1.69835 0.0140228 2.7079C0.0140228 3.71746 0.766743 4.4578 1.79318 4.4578C2.81962 4.4578 3.57234 3.71746 3.57234 2.7079C3.57234 1.69835 2.81962 0.958008 1.79318 0.958008ZM0.21931 5.87117H3.36705V15.6975H0.287739V5.87117H0.21931Z" fill="#CFB277"/>
</svg>
