<svg width="16" height="12" viewBox="0 0 16 12" fill="none" xmlns="http://www.w3.org/2000/svg">
<path fill-rule="evenodd" clip-rule="evenodd" d="M15.6894 2.15651C15.1379 2.37498 14.5448 2.5235 13.9238 2.59022C14.558 2.24825 15.0453 1.70799 15.2752 1.06307C14.6818 1.37894 14.0227 1.60844 13.3228 1.73221C12.7614 1.19625 11.9627 0.861816 11.0773 0.861816C9.37971 0.861816 8.0034 2.09731 8.0034 3.62151C8.0034 3.83783 8.03067 4.04876 8.08313 4.25029C5.52802 4.1354 3.26333 3.03766 1.74615 1.3671C1.4812 1.77472 1.33044 2.24825 1.33044 2.75434C1.33044 3.71137 1.87204 4.55728 2.69806 5.05234C2.19364 5.03781 1.71858 4.91297 1.30467 4.70606C1.30467 4.71817 1.30467 4.72893 1.30467 4.74158C1.30467 6.07905 2.36538 7.19455 3.77106 7.44719C3.5142 7.51122 3.24175 7.54405 2.96152 7.54405C2.7622 7.54405 2.57038 7.5271 2.38216 7.49508C2.77479 8.5904 3.90953 9.38842 5.25497 9.41183C4.20236 10.1525 2.8773 10.5932 1.43684 10.5932C1.18838 10.5932 0.943506 10.5798 0.70343 10.5542C2.06236 11.338 3.67994 11.7938 5.41592 11.7938C11.0701 11.7938 14.1638 7.58871 14.1638 3.94222C14.1638 3.82195 14.1602 3.70222 14.1554 3.58411C14.7558 3.19532 15.277 2.71022 15.6894 2.15651Z" fill="#CFB277"/>
</svg>
